HIERARCHY
ROOT Hips
{
	OFFSET 0.000000 0.000000 0.000000
	CHANNELS 6 Xposition Yposition Zposition Zrotation Yrotation Xrotation 
	JOINT LHipJoint
	{
		OFFSET 0.000000 0.000000 0.000000
		CHANNELS 3 Zrotation Yrotation Xrotation
		JOINT LeftUpLeg
		{
			OFFSET 1.363060 -1.794630 0.839290
			CHANNELS 3 Zrotation Yrotation Xrotation
			JOINT LeftLeg
			{
				OFFSET 2.448110 -6.726130 0.000000
				CHANNELS 3 Zrotation Yrotation Xrotation
				JOINT LeftFoot
				{
					OFFSET 2.562200 -7.039590 0.000000
					CHANNELS 3 Zrotation Yrotation Xrotation
					JOINT LeftToeBase
					{
						OFFSET 0.157640 -0.433110 2.322550
						CHANNELS 3 Zrotation Yrotation Xrotation
						End Site
						{
							OFFSET 0.000000 0.000000 0.000000
						}
					}
				}
			}
		}
	}
	JOINT RHipJoint
	{
		OFFSET 0.000000 0.000000 0.000000
		CHANNELS 3 Zrotation Yrotation Xrotation
		JOINT RightUpLeg
		{
			OFFSET -1.305520 -1.794630 0.839290
			CHANNELS 3 Zrotation Yrotation Xrotation
			JOINT RightLeg
			{
				OFFSET -2.542530 -6.985550 0.000000
				CHANNELS 3 Zrotation Yrotation Xrotation
				JOINT RightFoot
				{
					OFFSET -2.568260 -7.056230 0.000000
					CHANNELS 3 Zrotation Yrotation Xrotation
					JOINT RightToeBase
					{
						OFFSET -0.164730 -0.452590 2.363150
						CHANNELS 3 Zrotation Yrotation Xrotation
						End Site
						{
							OFFSET 0.000000 0.000000 0.000000
						}
					}
				}
			}
		}
	}
	JOINT LowerBack
	{
		OFFSET 0.000000 0.000000 0.000000
		CHANNELS 3 Zrotation Yrotation Xrotation
		JOINT Spine
		{
			OFFSET 0.028270 2.035590 -0.193380
			CHANNELS 3 Zrotation Yrotation Xrotation
			JOINT Spine1
			{
				OFFSET 0.056720 2.048850 -0.042750
				CHANNELS 3 Zrotation Yrotation Xrotation
				JOINT Neck
				{
					OFFSET 0.000000 0.000000 0.000000
					CHANNELS 3 Zrotation Yrotation Xrotation
					JOINT Neck1
					{
						OFFSET -0.054170 1.746240 0.172020
						CHANNELS 3 Zrotation Yrotation Xrotation
						JOINT Head
						{
							OFFSET 0.104070 1.761360 -0.123970
							CHANNELS 3 Zrotation Yrotation Xrotation
							End Site
							{
								OFFSET 0.000000 0.000000 0.000000
							}
						}
					}
				}
				JOINT LeftShoulder
				{
					OFFSET 0.000000 0.000000 0.000000
					CHANNELS 3 Zrotation Yrotation Xrotation
					JOINT LeftArm
					{
						OFFSET 3.362410 1.200890 -0.311210
						CHANNELS 3 Zrotation Yrotation Xrotation
						JOINT LeftForeArm
						{
							OFFSET 4.983000 -0.000000 -0.000000
							CHANNELS 3 Zrotation Yrotation Xrotation
							JOINT LeftHand
							{
								OFFSET 3.483560 -0.000000 -0.000000
								CHANNELS 3 Zrotation Yrotation Xrotation
								JOINT LeftFingerBase
								{
									OFFSET 0.000000 0.000000 0.000000
									CHANNELS 3 Zrotation Yrotation Xrotation
									JOINT LeftHandIndex1
									{
										OFFSET 0.715260 -0.000000 -0.000000
										CHANNELS 3 Zrotation Yrotation Xrotation
										End Site
										{
											OFFSET 0.000000 0.000000 0.000000
										}
									}
								}
								JOINT LThumb
								{
									OFFSET 0.000000 0.000000 0.000000
									CHANNELS 3 Zrotation Yrotation Xrotation
									End Site
									{
										OFFSET 0.000000 0.000000 0.000000
									}
								}
							}
						}
					}
				}
				JOINT RightShoulder
				{
					OFFSET 0.000000 0.000000 0.000000
					CHANNELS 3 Zrotation Yrotation Xrotation
					JOINT RightArm
					{
						OFFSET -3.136600 1.374050 -0.404650
						CHANNELS 3 Zrotation Yrotation Xrotation
						JOINT RightForeArm
						{
							OFFSET -5.241900 -0.000000 -0.000000
							CHANNELS 3 Zrotation Yrotation Xrotation
							JOINT RightHand
							{
								OFFSET -3.444170 -0.000000 -0.000000
								CHANNELS 3 Zrotation Yrotation Xrotation
								JOINT RightFingerBase
								{
									OFFSET 0.000000 0.000000 0.000000
									CHANNELS 3 Zrotation Yrotation Xrotation
									JOINT RightHandIndex1
									{
										OFFSET -0.622530 -0.000000 -0.000000
										CHANNELS 3 Zrotation Yrotation Xrotation
										End Site
										{
											OFFSET 0.000000 0.000000 0.000000
										}
									}
								}
								JOINT RThumb
								{
									OFFSET 0.000000 0.000000 0.000000
									CHANNELS 3 Zrotation Yrotation Xrotation
									End Site
									{
										OFFSET 0.000000 0.000000 0.000000
									}
								}
							}
						}
					}
				}
			}
		}
	}
}
MOTION
Frames: 9
Frame Time: 0.008333
3.500124 17.303848 2.380455 179.262200 -84.234777 -166.115862 -10.206858 1.670350 1.291546 -11.424766 0.878669 -9.601257 -2.442163 -1.015995 6.226398 0.757140 3.156640 -8.708173 -0.158700 -0.000001 -27.656700 9.310009 -0.019054 1.028883 6.868839 0.639530 -38.571717 1.363862 -2.417990 36.553011 -0.934452 -3.068429 -4.678062 -0.460300 0.000000 -40.378500 1.442989 -1.967276 -1.952953 -0.596244 -2.215006 -3.385959 -7.798749 -2.334088 -0.023384 10.228980 -2.845428 -4.134727 -4.499422 -0.362910 0.880255 0.000000 0.000000 0.000000 -4.268175 1.318549 1.906000 -63.664039 -22.304981 20.696649 -3.004140 -36.871928 -0.014283 5.506248 0.020297 -0.006353 -0.142939 0.174218 0.000000 0.000000 0.000000 0.000000 0.000000 0.000000 0.000000 19.684758 -1.801184 1.516259 67.673375 2.509332 -10.559693 3.778633 10.347873 0.009671 0.077453 5.681329 -0.000293 0.090545 -0.071473 0.000000 0.000000 0.000000 0.000000 0.000000 0.000000 0.000000 
3.322642 17.280524 2.364507 178.793212 -84.420892 -165.634465 -10.243397 1.725214 1.165098 -11.378917 1.387576 -8.579856 -2.491252 -1.061072 5.562064 0.671399 2.502441 -8.864047 -0.163600 0.000000 -28.312200 9.198953 0.043369 1.218042 6.845147 0.733244 -39.003827 1.565550 -2.167487 33.439388 -0.925863 -3.099522 -4.095399 -0.546500 -0.000000 -41.081499 1.551750 -2.118580 -1.980974 -0.559446 -2.372428 -3.373181 -7.783103 -2.484821 0.015897 10.239177 -3.321258 -4.220598 -4.467049 -0.360212 0.862164 0.000000 0.000000 0.000000 -3.970238 1.000232 1.871409 -63.148752 -23.365165 20.736258 -2.955970 -38.202958 -0.015293 5.549325 -0.024168 -0.009090 -0.147154 0.185761 0.000000 0.000000 0.000000 0.000000 0.000000 0.000000 0.000000 19.590143 -2.368182 1.558628 67.116233 1.503904 -10.600540 3.828684 10.334171 0.009953 0.060043 5.693820 -0.001403 0.093651 -0.068483 -0.000000 0.000000 0.000000 0.000000 0.000000 0.000000 0.000000 
3.144788 17.252161 2.345895 177.727132 -84.597668 -164.546710 -10.274060 1.780241 1.035060 -11.374168 1.884949 -7.601681 -2.545376 -1.102502 4.987652 0.590373 1.850267 -9.059111 -0.165300 0.000000 -29.010800 9.103621 0.106003 1.420866 6.752049 0.798908 -39.412356 1.759777 -1.893843 30.263449 -0.914522 -3.144002 -3.462346 -0.641900 0.000000 -41.535000 1.596003 -2.272937 -2.019725 -0.535619 -2.528326 -3.361138 -7.761057 -2.633771 0.060489 10.244891 -3.817915 -4.314934 -4.431312 -0.357249 0.841714 0.000000 0.000000 0.000000 -3.645954 0.695815 1.834696 -62.588660 -24.412496 20.728536 -2.903010 -39.504731 -0.016359 5.598001 -0.059363 -0.011530 -0.151070 0.197273 0.000000 0.000000 0.000000 0.000000 0.000000 0.000000 0.000000 19.481290 -2.950925 1.597076 66.574611 0.532391 -10.658072 3.873978 10.336503 0.010281 0.021515 5.743879 -0.003512 0.096744 -0.065828 -0.000000 0.000000 0.000000 0.000000 0.000000 0.000000 0.000000 
2.966528 17.219013 2.324567 175.964797 -84.768288 -162.759994 -10.297248 1.834772 0.900777 -11.414563 2.360401 -6.652356 -2.603656 -1.140518 4.500050 0.516647 1.220746 -9.294068 -0.163700 0.000000 -29.723100 9.026005 0.171682 1.632264 6.584995 0.824314 -39.793555 1.948126 -1.597909 27.050994 -0.891610 -3.147873 -2.826082 -0.734600 0.000001 -41.700700 1.573826 -2.433804 -2.062431 -0.525236 -2.685736 -3.348510 -7.732293 -2.783951 0.110308 10.245582 -4.330265 -4.416476 -4.392328 -0.354017 0.819146 0.000000 0.000000 0.000000 -3.298016 0.405455 1.796575 -61.981457 -25.442836 20.673317 -2.845125 -40.774633 -0.017478 5.653311 -0.089898 -0.013673 -0.154652 0.208745 0.000000 0.000000 0.000000 0.000000 0.000000 0.000000 0.000000 19.358632 -3.547135 1.631556 66.050610 -0.400695 -10.756419 3.914602 10.343805 0.010640 -0.030264 5.817153 -0.006419 0.099789 -0.063460 -0.000000 0.000000 0.000000 0.000000 0.000000 0.000000 0.000000 
2.787885 17.181491 2.300548 173.446713 -84.937250 -160.221976 -10.310528 1.887758 0.762538 -11.499250 2.802093 -5.718226 -2.664632 -1.175517 4.093768 0.452488 0.633576 -9.569078 -0.158800 -0.000000 -30.422600 8.967541 0.243202 1.846688 6.345116 0.797541 -40.144122 2.132090 -1.281774 23.828646 -0.847707 -3.054900 -2.228694 -0.809400 0.000000 -41.591400 1.489108 -2.604715 -2.102986 -0.527437 -2.848258 -3.334108 -7.696386 -2.938972 0.165134 10.240174 -4.853438 -4.523810 -4.350107 -0.350508 0.794795 0.000000 0.000000 0.000000 -2.931024 0.127955 1.757679 -61.325094 -26.451206 20.570074 -2.782147 -42.009660 -0.018652 5.716793 -0.120261 -0.016019 -0.157861 0.220190 0.000000 0.000000 0.000000 0.000000 0.000000 0.000000 0.000000 19.221344 -4.155066 1.662096 65.544992 -1.290192 -10.914543 3.950956 10.343188 0.011015 -0.087612 5.899182 -0.009626 0.102767 -0.061335 -0.000000 0.000000 0.000000 0.000000 0.000000 0.000000 0.000000 
2.608877 17.140063 2.274053 170.162504 -85.107984 -156.930836 -10.310095 1.938218 0.620024 -11.623115 3.199393 -4.778450 -2.726148 -1.207917 3.756587 0.399766 0.107710 -9.880591 -0.151600 -0.000000 -31.091000 8.929738 0.323760 2.056326 6.039583 0.705785 -40.454735 2.312682 -0.948925 20.622023 -0.773660 -2.811203 -1.702627 -0.849700 -0.000000 -41.267199 1.351997 -2.787729 -2.131792 -0.540094 -3.018408 -3.316318 -7.653509 -3.101409 0.223665 10.228143 -5.380507 -4.634705 -4.305024 -0.346744 0.769176 0.000000 0.000000 0.000000 -2.552186 -0.139917 1.719155 -60.618481 -27.433947 20.416841 -2.714189 -43.205186 -0.019877 5.788098 -0.153624 -0.018468 -0.160644 0.231634 -0.000000 0.000000 0.000000 0.000000 0.000000 0.000000 0.000000 19.070317 -4.770060 1.689311 65.057220 -2.137015 -11.153572 3.983344 10.332354 0.011375 -0.140267 5.970603 -0.012634 0.105639 -0.059420 -0.000000 0.000000 0.000000 0.000000 0.000000 0.000000 0.000000 
2.429279 17.095297 2.245415 166.165713 -85.283290 -152.941385 -10.291923 1.986258 0.475794 -11.775497 3.545537 -3.829704 -2.786371 -1.237817 3.483259 0.359070 -0.348775 -10.227401 -0.143200 0.000000 -31.721300 8.913510 0.416300 2.257454 5.682453 0.543751 -40.725802 2.490029 -0.602997 17.450833 -0.662967 -2.378126 -1.261956 -0.842800 0.000000 -40.847900 1.179360 -2.983712 -2.147642 -0.559320 -3.198416 -3.294177 -7.603731 -3.273511 0.288473 10.208672 -5.919042 -4.751865 -4.257073 -0.342692 0.741609 0.000000 0.000000 0.000000 -2.172655 -0.394428 1.680341 -59.862450 -28.393760 20.217952 -2.641667 -44.353415 -0.021153 5.867464 -0.193486 -0.021421 -0.162965 0.243082 0.000000 0.000000 0.000000 0.000000 0.000000 0.000000 0.000000 18.906379 -5.402299 1.712741 64.580634 -2.925957 -11.455666 4.012455 10.300703 0.011700 -0.188273 6.017876 -0.015440 0.108453 -0.057654 -0.000000 0.000000 0.000000 0.000000 0.000000 0.000000 0.000000 
2.249133 17.047852 2.215016 161.548937 -85.460570 -148.353064 -10.251929 2.032783 0.331622 -11.943488 3.834038 -2.858741 -2.842880 -1.264750 3.259964 0.330787 -0.727243 -10.602766 -0.135000 -0.000000 -32.317900 8.919752 0.525001 2.443702 5.292175 0.308155 -40.948638 2.662992 -0.248248 14.329676 -0.512013 -1.732477 -0.902068 -0.781500 -0.000000 -40.490200 0.989957 -3.190283 -2.145230 -0.580974 -3.387288 -3.267829 -7.547521 -3.454668 0.354629 10.180207 -6.452703 -4.868968 -4.206946 -0.338441 0.713812 0.000000 0.000000 0.000000 -1.800881 -0.646727 1.642760 -59.059234 -29.314613 19.965343 -2.564468 -45.452478 -0.022478 5.953007 -0.240419 -0.024777 -0.164705 0.254559 -0.000000 0.000000 0.000000 0.000000 0.000000 0.000000 0.000000 18.728068 -6.035460 1.733844 64.115540 -3.672163 -11.860293 4.038916 10.248268 0.011965 -0.218986 6.029156 -0.017248 0.111156 -0.056078 -0.000000 0.000000 0.000000 0.000000 0.000000 0.000000 0.000000 
2.068099 16.998419 2.183320 156.440650 -85.633926 -143.293568 -10.188938 2.080141 0.190881 -12.113919 4.061576 -1.861171 -2.893765 -1.287782 3.074463 0.314220 -1.026815 -10.997104 -0.128200 0.000000 -32.896700 8.947733 0.653426 2.610493 4.889311 0.001581 -41.117536 2.829441 0.111367 11.266823 -0.321797 -0.874565 -0.599050 -0.666200 0.000000 -40.363600 0.801599 -3.403001 -2.123474 -0.601187 -3.582056 -3.237417 -7.485770 -3.642183 0.420557 10.142271 -6.977661 -4.984315 -4.155284 -0.334047 0.686284 0.000000 0.000000 0.000000 -1.446445 -0.899928 1.606550 -58.214403 -30.190501 19.658101 -2.483210 -46.496573 -0.023844 6.042208 -0.294538 -0.028739 -0.165785 0.266051 -0.000000 0.000000 0.000000 0.000000 0.000000 0.000000 0.000000 18.536671 -6.665075 1.753376 63.658450 -4.379089 -12.374315 4.063159 10.176353 0.012149 -0.228203 5.995226 -0.017756 0.113744 -0.054710 -0.000000 0.000000 0.000000 0.000000 0.000000 0.000000 0.000000 
